<svg xmlns="http://www.w3.org/2000/svg" width="16" height="16" fill="#3B82F6" class="bi bi-crosshair" viewBox="0 0 16 16">
  <path d="M8.5.5a.5.5 0 0 0-1 0v2.065a5.5 5.5 0 0 0-5.436 5.436H.5a.5.5 0 0 0 0 1h2.064A5.5 5.5 0 0 0 8 14.436V16.5a.5.5 0 0 0 1 0v-2.064a5.5 5.5 0 0 0 5.436-5.436h2.064a.5.5 0 0 0 0-1h-2.064A5.5 5.5 0 0 0 8.5 2.564zm-6.48 7.5A4.5 4.5 0 0 1 6.5 3.52V5.5a.5.5 0 0 0 1 0V3.52a4.5 4.5 0 0 1 4.48 4.48h-1.98a.5.5 0 0 0 0 1h1.98a4.5 4.5 0 0 1-4.48 4.48V11.5a.5.5 0 0 0-1 0v1.98A4.5 4.5 0 0 1 2.02 9.5h1.98a.5.5 0 0 0 0-1z"/>
</svg>